# AST/ASF file generated using VICON BodyLanguage
# -----------------------------------------------
:version 1.10
:name VICON
:units
  mass 1.0
  length 0.45
  angle deg
:documentation
   .ast/.asf automatically generated from VICON data using
   VICON BodyBuilder and BodyLanguage model FoxedUp or BRILLIANT.MOD
:root
   order TX TY TZ RX RY RZ
   axis XYZ
   position 0 0 0  
   orientation 0 0 0 
:bonedata
  begin
     id 1 
     name lhipjoint
     direction 0.677091 -0.635792 0.370561 
     length 2.74323 
     axis 0 0 0  XYZ
  end
  begin
     id 2 
     name lfemur
     direction 0.34202 -0.939693 0  
     length 7.44995  
     axis 0 0 20  XYZ
    dof rx ry rz
    limits (-160.0 20.0)
           (-70.0 70.0)
           (-60.0 70.0)
  end
  begin
     id 3 
     name ltibia
     direction 0.34202 -0.939693 0   
     length 7.34467   
     axis 0 0 20   XYZ
    dof rx
    limits (-10.0 170.0)
  end
  begin
     id 4 
     name lfoot
     direction 0.101953 -0.280114 0.954537   
     length 1.72105   
     axis -90 7.62852e-016 20   XYZ
    dof rx rz
    limits (-45.0 90.0)
           (-70.0 20.0)
  end
  begin
     id 5 
     name ltoes
     direction 1.53537e-011 -4.21915e-011 1   
     length 0.865872   
     axis -90 7.62852e-016 20   XYZ
    dof rx
    limits (-90.0 20.0)
  end
  begin
     id 6 
     name rhipjoint
     direction -0.695735 -0.620586 0.361699   
     length 2.81045  
     axis 0 0 0  XYZ 
  end
  begin
     id 7 
     name rfemur
     direction -0.34202 -0.939693 0   
     length 7.29387   
     axis 0 0 -20   XYZ
    dof rx ry rz
    limits (-160.0 20.0)
           (-70.0 70.0)
           (-70.0 60.0)
  end
  begin
     id 8 
     name rtibia
     direction -0.34202 -0.939693 0   
     length 7.44935   
     axis 0 0 -20   XYZ
    dof rx
    limits (-10.0 170.0)
 end
 begin
     id 9 
     name rfoot
     direction -0.104163 -0.286184 0.952496   
     length 1.77731  
     axis -90 -7.62852e-016 -20   XYZ
    dof rx rz
    limits (-45.0 90.0)
           (-20.0 70.0)
  end
  begin
     id 10 
     name rtoes
     direction -1.5355e-011 -4.21888e-011 1   
     length 0.892424   
     axis -90 -7.62852e-016 -20   XYZ
    dof rx
    limits (-90.0 20.0)
  end
  begin
     id 11 
     name lowerback
     direction 0.0100202 0.997226 -0.0737589   
     length 2.16892   
     axis 0 0 0   XYZ
    dof rx ry rz
    limits (-20.0 45.0)
           (-30.0 30.0)
           (-30.0 30.0)
  end
  begin
     id 12 
     name upperback
     direction 0.00432398 0.999988 -0.00215019   
     length 2.17326   
     axis 0 0 0   XYZ
    dof rx ry rz
    limits (-20.0 45.0)
           (-30.0 30.0)
           (-30.0 30.0)
  end
  begin
     id 13 
     name thorax
     direction -0.00195047 0.999485 0.0320434   
     length 2.18139   
     axis 0 0 0   XYZ
    dof rx ry rz
    limits (-20.0 45.0)
           (-30.0 30.0)
           (-30.0 30.0)
  end
  begin
     id 14 
     name lowerneck
     direction 0.00782762 0.986241 0.165128   
     length 1.88415   
     axis 0 0 0   XYZ
    dof rx ry rz
    limits (-20.0 45.0)
           (-30.0 30.0)
           (-30.0 30.0)
  end
  begin
     id 15 
     name upperneck
     direction 0.00988667 0.981098 -0.193258   
     length 1.9242   
     axis 0 0 0   XYZ
    dof rx ry rz
    limits (-20.0 45.0)
           (-30.0 30.0)
           (-30.0 30.0)
  end
  begin
     id 16
     name head
     direction 0.00252199 0.996513 -0.0833958  
     length 1.93887  
     axis 0 0 0   XYZ
    dof rx ry rz
    limits (-20.0 45.0)
           (-30.0 30.0)
           (-30.0 30.0)
  end
  begin
     id 17 
     name lclavicle
     direction 0.929492 0.368193 -0.0218667  
     length 3.5955  
     axis 0 0 0   XYZ
    dof ry rz
    limits (-20.0 10.0)
           (0.0 20.0)
  end
  begin
     id 18 
     name lhumerus
     direction 1 -4.48972e-011 1.41911e-027   
     length 5.2795   
     axis 180 -30 -90   XYZ
    dof rx ry rz
    limits (-60.0 90.0)
           (-90.0 90.0)
           (-90.0 90.0)
  end
  begin
     id 19
     name lradius
     direction 1 -4.48963e-011 7.05772e-027   
     length 3.53504   
     axis 180 -30 -90   XYZ
    dof rx
    limits (-10.0 170.0)
  end
  begin
     id 20
     name lwrist
     direction 1 -4.48957e-011 9.54866e-027   
     length 1.76752   
     axis -7.69462e-015 90 90   XYZ
    dof ry
    limits (-180.0 0.0)
 end
  begin
     id 21 
     name lhand
     direction 1 -4.48979e-011 1.90973e-026   
     length 0.667948   
     axis -1.21857e-014 90 90   XYZ
    dof rx rz
    limits (-90.0 90.0)
           (-45.0 45.0)
  end
  begin
     id 22 
     name lfingers
     direction 1 -4.48987e-011 3.81946e-026   
     length 0.538517   
     axis -2.43714e-014 90 90   XYZ
    dof rx
    limits (0.0 90.0)
  end
  begin
     id 23
     name lthumb
     direction 0.707107 -6.34962e-011 0.707107   
     length 0.773206   
     axis -90 45 2.85299e-015   XYZ
    dof rx rz
    limits (-45.0 45.0)
           (-45.0 45.0)
  end
  begin
     id 24 
     name rclavicle
     direction -0.898763 0.414256 -0.143584   
     length 3.5176  
     axis 0 0 0   XYZ 
    dof ry rz
    limits (-10.0 20.0)
           (-20.0 0.0)
  end
  begin
     id 25 
     name rhumerus
     direction -1 -4.48971e-011 1.129e-027  
     length 5.25035   
     axis 180 30 90   XYZ
    dof rx ry rz
    limits (-90.0 60.0)
           (-90.0 90.0)
           (-90.0 90.0)
  end
  begin
     id 26 
     name rradius
     direction -1 -4.48955e-011 6.34664e-027   
     length 3.58884   
     axis 180 30 90   XYZ
    dof rx
    limits (-10.0 170.0)
  end
  begin
     id 27 
     name rwrist
     direction -1 -4.48966e-011 9.54866e-027   
     length 1.79442   
     axis -7.69462e-015 -90 -90   XYZ
    dof ry
    limits (-180.0 0.0)
  end
  begin
     id 28
     name rhand
     direction -1 -4.48973e-011 1.90973e-026   
     length 0.779235   
     axis -1.21857e-014 -90 -90   XYZ
    dof rx rz
    limits (-90.0 90.0)
           (-45.0 45.0)
  end
  begin
     id 29
     name rfingers
     direction -1 -4.48984e-011 3.81946e-026   
     length 0.62824   
     axis -2.43714e-014 -90 -90   XYZ
    dof rx
    limits (0.0 90.0)
  end
  begin
     id 30
     name rthumb
     direction -0.707107 -6.34968e-011 0.707107   
     length 0.90203   
     axis -90 -45 -2.85299e-015   XYZ
    dof rx rz
    limits (-45.0 45.0)
           (-45.0 45.0)
  end
:hierarchy
  begin
    root lhipjoint rhipjoint lowerback
    lhipjoint lfemur
    lfemur ltibia
    ltibia lfoot
    lfoot ltoes
    rhipjoint rfemur
    rfemur rtibia
    rtibia rfoot
    rfoot rtoes
    lowerback upperback
    upperback thorax
    thorax lowerneck lclavicle rclavicle
    lowerneck upperneck
    upperneck head
    lclavicle lhumerus
    lhumerus lradius
    lradius lwrist
    lwrist lhand lthumb
    lhand lfingers
    rclavicle rhumerus
    rhumerus rradius
    rradius rwrist
    rwrist rhand rthumb
    rhand rfingers
  end

#!OML:ASF I:\Random Stuff\random\construction\7_22_03\Session 2\subj1.ASF
:FULLY-SPECIFIED
:DEGREES
1
root -26.7756 17.4041 -4.22118 -2.74041 89.3439 -10.0765
lowerback -1.97389 0.999748 -0.552662
upperback -1.70104 1.36046 0.632135
thorax -0.663737 0.697024 0.974654
lowerneck -25.7937 -0.629598 -4.73052
upperneck 31.2051 -2.28461 10.93
head 15.548 0.311044 5.1013
rclavicle 2.06239e-015 3.37934e-015
rhumerus -36.5779 -0.532668 -76.1419
rradius 36.4127
rwrist -8.11584
rhand -16.6326 15.8816
rfingers 7.12502
rthumb 9.58981 -13.8801
lclavicle 2.06239e-015 3.37934e-015
lhumerus -34.0895 -6.72523 83.9448
lradius 42.989
lwrist 25.7924
lhand -19.4505 54.4092
lfingers 7.12502
lthumb 6.87027 84.2777
rfemur -10.3295 12.1526 18.3138
rtibia 21.2361
rfoot -15.6213 -35.5434
rtoes -7.7307
lfemur -15.1909 -22.5495 -12.939
ltibia 25.151
lfoot -11.505 19.262
ltoes -17.185
2
root -26.7686 17.4038 -4.21582 -4.58966 89.2001 -11.9382
lowerback -2.07532 1.03835 -0.487901
upperback -1.69215 1.41184 0.677943
thorax -0.59854 0.72229 0.988152
lowerneck -25.8234 -0.61674 -4.72365
upperneck 31.2712 -2.27143 10.934
head 15.5845 0.319756 5.11072
rclavicle -8.97016e-015 1.98785e-015
rhumerus -36.2289 0.629253 -76.9442
rradius 38.2203
rwrist -8.70806
rhand -16.8064 16.4417
rfingers 7.12502
rthumb 9.42211 -13.3277
lclavicle -8.97016e-015 1.98785e-015
lhumerus -33.7993 -7.55102 84.8657
lradius 44.6168
lwrist 25.9393
lhand -19.3354 55.4777
lfingers 7.12502
lthumb 6.98137 85.3426
rfemur -10.3568 12.291 18.3647
rtibia 21.2399
rfoot -15.7064 -35.5155
rtoes -7.41071
lfemur -15.1135 -22.5498 -12.8761
ltibia 25.0963
lfoot -11.6205 19.4473
ltoes -17.6975
3
root -26.7638 17.4061 -4.20771 -1.42221 89.1111 -8.78628
lowerback -2.12985 1.07294 -0.459804
upperback -1.69778 1.45782 0.662457
thorax -0.573647 0.744972 0.958324
lowerneck -25.8653 -0.628022 -4.72307
upperneck 31.3376 -2.30488 10.9784
head 15.6308 0.314777 5.13058
rclavicle -1.50704e-014 1.98785e-016
rhumerus -35.7319 1.70365 -77.7577
rradius 39.6314
rwrist -9.26294
rhand -16.8066 16.4633
rfingers 7.12502
rthumb 9.422 -13.3061
lclavicle -1.50704e-014 1.98785e-016
lhumerus -33.5523 -8.38425 85.6795
lradius 46.1685
lwrist 25.9818
lhand -19.3865 54.1674
lfingers 7.12502
lthumb 6.93202 84.0339
rfemur -10.4074 12.3707 18.3449
rtibia 21.3061
rfoot -15.821 -35.4747
rtoes -7.0957
lfemur -15.0151 -22.3428 -12.8904
ltibia 24.9466
lfoot -11.8725 19.3944
ltoes -17.5783
4
root -26.7621 17.4086 -4.1991 5.30401 89.1038 -2.02873
lowerback -2.07407 1.07865 -0.499121
upperback -1.7052 1.46564 0.633076
thorax -0.612835 0.749152 0.949077
lowerneck -25.8701 -0.621602 -4.7094
upperneck 31.3932 -2.30545 10.988
head 15.6585 0.319219 5.13718
rclavicle -5.87657e-015 -3.97569e-015
rhumerus -35.3853 2.58904 -78.4591
rradius 41.1019
rwrist -9.55723
rhand -16.5962 16.4527
rfingers 7.12502
rthumb 9.62493 -13.3074
lclavicle -5.87657e-015 -3.97569e-015
lhumerus -33.2833 -9.12853 86.3904
lradius 47.4492
lwrist 25.9542
lhand -18.9013 54.9221
lfingers 7.12502
lthumb 7.40043 84.7727
rfemur -10.4018 12.3534 18.2677
rtibia 21.3674
rfoot -15.8386 -35.4492
rtoes -7.2564
lfemur -14.8938 -22.3667 -12.9748
ltibia 24.7836
lfoot -12.1717 19.4659
ltoes -16.7035
5
root -26.7475 17.408 -4.19087 6.85009 88.8827 -0.469587
lowerback -2.19161 1.15111 -0.48175
upperback -1.68806 1.56231 0.635242
thorax -0.531078 0.797067 0.945874
lowerneck -25.8559 -0.61514 -4.68193
upperneck 31.4501 -2.29913 10.9594
head 15.6807 0.322183 5.12517
rclavicle -2.74571e-015 8.74653e-015
rhumerus -35.2108 3.33258 -79.057
rradius 42.7561
rwrist -9.64317
rhand -16.8682 17.0611
rfingers 7.12502
rthumb 9.36247 -12.711
lclavicle -2.74571e-015 8.74653e-015
lhumerus -33.0186 -9.75317 87.0688
lradius 48.5225
lwrist 25.9654
lhand -18.6578 54.5904
lfingers 7.12502
lthumb 7.63543 84.4326
rfemur -10.4254 12.5525 18.248
rtibia 21.4502
rfoot -16.0154 -35.4489
rtoes -7.44454
lfemur -14.6637 -22.9015 -13.0036
ltibia 24.6094
lfoot -12.1911 20.2111
ltoes -17.2969
6
root -26.7566 17.4131 -4.17425 10.0782 89.0893 2.69558
lowerback -2.01552 1.06992 -0.54085
upperback -1.77873 1.45587 0.663481
thorax -0.72261 0.746019 1.00122
lowerneck -25.8709 -0.617823 -4.66581
upperneck 31.5201 -2.30545 10.9405
head 15.7176 0.320349 5.11885
rclavicle -5.39203e-015 -3.77691e-015
rhumerus -35.003 4.12625 -79.6408
rradius 44.254
rwrist -9.76223
rhand -17.139 17.7467
rfingers 7.12502
rthumb 9.10124 -12.0369
lclavicle -5.39203e-015 -3.77691e-015
lhumerus -32.8371 -10.424 87.7491
lradius 49.537
lwrist 25.8224
lhand -18.7385 54.5545
lfingers 7.12502
lthumb 7.55752 84.3995
rfemur -10.5444 12.3274 18.2549
rtibia 21.5275
rfoot -16.0095 -35.4764
rtoes -7.72359
lfemur -14.7478 -22.8627 -12.9079
ltibia 24.4398
lfoot -11.6829 19.8434
ltoes -18.3229
7
root -26.7452 17.4117 -4.1651 8.58793 88.8747 1.27762
lowerback -2.01727 1.09576 -0.476687
upperback -1.73185 1.48899 0.70728
thorax -0.673846 0.761632 1.01119
lowerneck -25.9173 -0.585882 -4.63331
upperneck 31.5592 -2.26126 10.9023
head 15.7403 0.337819 5.10906
rclavicle -4.91992e-015 -1.17283e-014
rhumerus -34.9064 4.92107 -80.1634
rradius 45.9586
rwrist -9.88194
rhand -16.7567 17.8522
rfingers 7.12502
rthumb 9.47008 -11.915
lclavicle -4.91992e-015 -1.17283e-014
lhumerus -32.6755 -11.0275 88.358
lradius 50.4481
lwrist 25.7868
lhand -19.2849 54.3688
lfingers 7.12502
lthumb 7.03014 84.232
rfemur -10.5021 12.5339 18.3038
rtibia 21.5995
rfoot -15.9589 -35.4295
rtoes -7.56761
lfemur -14.4619 -23.2489 -12.9061
ltibia 24.2955
lfoot -11.7911 20.3551
ltoes -18.9119
8
root -26.7366 17.412 -4.15004 6.18829 88.7638 -1.11582
lowerback -2.04457 1.07258 -0.415253
upperback -1.69947 1.45718 0.76119
thorax -0.624585 0.74509 1.03257
lowerneck -25.9648 -0.543886 -4.55962
upperneck 31.5827 -2.22207 10.8698
head 15.7564 0.359081 5.09219
rclavicle 2.45996e-015 -2.18663e-015
rhumerus -34.9504 5.51569 -80.6279
rradius 47.8366
rwrist -9.83699
rhand -16.1163 17.1845
rfingers 7.12502
rthumb 10.0879 -12.5537
lclavicle 2.45996e-015 -2.18663e-015
lhumerus -32.5367 -11.4972 88.8507
lradius 51.2356
lwrist 25.9006
lhand -20.1194 53.6167
lfingers 7.12502
lthumb 6.22455 83.5053
rfemur -10.5251 12.6513 18.4084
rtibia 21.6674
rfoot -16.1319 -35.3972
rtoes -6.93804
lfemur -14.2942 -23.2485 -12.825
ltibia 24.1289
lfoot -11.8612 20.521
ltoes -19.3572
9
root -26.7293 17.412 -4.13142 5.61609 88.7275 -1.66995
lowerback -1.9744 1.03755 -0.353944
upperback -1.70514 1.40958 0.765385
thorax -0.66726 0.72084 1.00035
lowerneck -25.9952 -0.536067 -4.47874
upperneck 31.6464 -2.25678 10.8942
head 15.7984 0.360613 5.08815
rclavicle -1.54058e-015 4.96962e-015
rhumerus -34.7573 5.98341 -81.0757
rradius 48.8774
rwrist -9.79847
rhand -15.8271 17.008
rfingers 7.12502
rthumb 10.3669 -12.7164
lclavicle -1.54058e-015 4.96962e-015
lhumerus -32.4708 -11.8494 89.211
lradius 51.8682
lwrist 25.8361
lhand -20.6083 53.1742
lfingers 7.12502
lthumb 5.75256 83.0761
rfemur -10.5277 12.6903 18.4969
rtibia 21.7451
rfoot -16.3724 -35.4147
rtoes -6.54614
lfemur -14.1498 -23.4838 -12.7666
ltibia 23.9942
lfoot -11.9085 20.8651
ltoes -19.803
